<svg width="714" height="292" viewBox="0 0 714 292" fill="none" xmlns="http://www.w3.org/2000/svg">
<g clip-path="url(#clip0_11591_422)">
<path d="M126.353 188.865C135.738 180.335 148.785 176.843 161.175 175.126C162.462 174.954 163.836 174.753 165.152 174.639L169.243 174.267L194.508 174.095C195.309 174.095 196.883 173.551 196.883 172.635V160.355L196.34 156.147C195.71 151.109 193.936 146.243 190.159 142.637C186.382 139.03 181.118 137.398 175.824 136.854C169.673 136.196 161.718 136.625 155.967 138.772C150.617 140.805 146.21 144.44 143.95 149.85C141.718 155.203 137.026 159.897 131.274 159.153C127.497 158.666 123.978 156.262 123.263 152.254C123.12 151.367 123.005 149.964 123.263 149.049C125.466 141.32 130.073 134.765 136.396 129.899C142.405 125.29 149.214 122.628 156.654 121.139C169.358 118.621 185.638 119.193 197.198 125.29C203.378 128.553 208.385 133.276 211.619 139.602C214.652 145.528 216.769 152.283 216.798 159.267L216.998 239.588C216.998 241.449 215.624 243.252 214.652 244.483C210.875 249.206 204.151 249.435 199.973 245.285C198.342 243.682 197.112 241.964 197.026 239.588L196.797 232.461L193.736 235.982C186.239 244.598 175.853 248.949 164.522 250.036L151.618 250.122L148.127 249.636C134.622 247.746 122.891 240.418 118.17 227.28C116.424 222.413 116.081 217.576 116.052 212.338C115.995 203.264 119.543 194.991 126.296 188.837L126.353 188.865ZM164.866 233.806C174.193 232.375 184.379 226.707 190.359 219.494C193.679 215.515 196.769 210.964 196.797 205.668L196.883 190.01C196.883 188.665 195.166 188.236 194.165 188.264L174.022 188.436L168.757 188.837L164.837 189.266C161.175 189.667 157.856 190.44 154.365 191.47C143.463 194.733 135.881 201.489 136.053 213.339C136.139 218.463 136.968 223.444 140.316 227.423C145.724 233.863 156.74 235.037 164.808 233.777L164.866 233.806Z" fill="#263038"/>
<path d="M713.113 135.454L651.71 285.762C650.509 288.71 648.363 290.714 645.787 291.544C642.554 292.574 639.292 291.859 636.946 289.855C633.169 286.649 632.711 282.384 634.571 278.004L651.739 237.214C652.483 235.439 652.454 234.667 651.682 232.92L609.964 137.314C608.505 133.936 607.647 130.902 609.449 127.467C610.851 124.805 613.684 122.258 617.146 122.114C619.378 122.029 621.495 122.114 623.241 123.259C625.53 124.719 626.789 126.523 627.847 128.984L661.324 207.788C661.782 208.876 662.841 209.047 663.813 208.761C664.586 208.532 664.843 207.845 665.244 206.843L696.174 126.952C697.634 123.145 702.097 121.828 705.531 122.086C708.735 122.315 711.139 124.204 712.512 126.408C714.257 129.242 714.372 132.305 713.056 135.482L713.113 135.454Z" fill="#263038"/>
<path d="M71.0454 238.473C71.0454 242.767 66.3529 247.977 60.802 248.177C54.9937 248.377 49.872 243.11 49.872 238.216L49.8148 94.3481C49.8148 93.3462 48.4128 92.8023 47.6688 92.8023L7.29638 92.6879C2.83281 92.6879 -0.171518 88.1365 0.000158165 83.8142C0.143221 80.2361 3.4909 75.6276 8.04031 75.6276L112.534 75.5703C116.654 75.5703 120.059 79.0053 120.803 82.6692C121.747 87.335 118.342 92.6878 113.478 92.7165L73.735 92.8023C72.8766 92.8023 71.1312 93.1458 71.1312 94.3767L71.0454 238.502V238.473Z" fill="#263038"/>
<path d="M439.833 128.783C441.55 123.859 446.271 121.168 450.964 122.113C457.573 123.43 460.32 129.87 458.145 135.853L421.521 237.499C419.06 244.312 411.621 248.205 404.926 248.147C398.23 248.09 390.848 243.94 388.33 237.041L351.134 134.651C350.018 128.496 353.509 122.915 359.689 122.056C363.781 121.684 368.759 123.344 370.304 127.723L403.438 221.555C403.839 222.7 404.21 223.416 405.269 223.502C406.328 223.587 407.1 223.101 407.501 221.927L439.862 128.783H439.833Z" fill="#263038"/>
<path d="M587.589 248.834L581.695 249.664L571.824 249.607C568.133 249.206 564.67 248.576 561.237 247.26C548.848 242.536 542.639 230.8 542.639 217.604L542.524 140.69C542.524 139.574 541.838 139.058 540.836 139.058L532.138 138.915C528.103 138.429 525.299 135.28 524.613 131.559C523.926 127.838 526.959 122.771 531.222 122.227L539.863 122.113C540.664 122.113 542.41 121.683 542.41 120.595L542.582 102.991C542.639 97.8389 546.587 93.9173 551.337 93.3448C556.43 92.6006 560.979 95.9783 562.496 101.045L562.553 119.622C562.553 120.882 563.497 122.084 564.842 122.084H585.386C589.363 123.286 592.196 126.75 591.996 130.814C591.738 134.679 588.877 138.801 584.47 138.858L564.098 139.116C563.011 139.116 562.525 140.547 562.525 141.692L562.668 216.545C562.668 219.751 563.555 222.7 564.785 225.39C567.646 231.63 574.942 233.634 581.695 232.69C587.303 231.888 593.398 235.552 593.598 241.363C593.712 245.113 591.452 248.319 587.589 248.863V248.834Z" fill="#263038"/>
<path d="M414.712 20.2661C413.024 20.6096 411.536 20.6096 410.077 19.8367L399.433 20.0943L395.999 20.4665C373.968 22.8995 355.656 31.7159 340.52 48.0606C337.801 50.9803 335.398 54.129 333.395 57.5067C332.251 59.4532 331.192 61.1707 329.389 62.6592C328.188 63.6324 326.642 63.9759 325.183 64.4339C323.924 64.8347 323.066 64.5484 321.893 64.3767C316.456 63.4893 313.109 58.6517 313.767 53.2703C313.967 51.5528 314.396 50.1502 315.398 48.6331L319.661 42.2212L324.153 36.439L325.727 34.607L333.052 27.3077L335.598 25.1323L337.773 23.3003C353.023 11.3066 371.049 3.69241 390.277 1.00169L393.396 0.572322L398.403 0.228827C402.809 -0.0574197 406.987 -0.114669 411.393 0.228827L415.914 0.572322L419.519 1.00169C426.586 1.83181 433.339 3.60653 440.063 5.95376C453.311 10.5337 465.242 17.375 475.772 26.5635C479.033 29.3973 481.866 32.1167 484.641 35.4371C488.79 40.3892 492.682 45.4558 495.514 51.1521C496.144 52.4402 496.001 54.2149 495.943 55.6175C495.772 60.2261 491.938 63.5752 487.703 64.4912C484.441 65.2068 479.72 63.3462 477.917 60.3406C475.457 56.2759 473.139 52.1253 469.706 48.6617L462.381 41.3338L457.831 37.6985L448.876 31.7446L445.585 29.9985L436.916 25.991C430.363 23.5007 423.754 21.6687 416.744 20.8099C416.028 20.7241 415.342 20.8672 414.712 20.2947V20.2661Z" fill="#37BDB4"/>
<path d="M267.786 245.169C266.041 246.801 263.981 248.003 261.406 248.146C256.398 248.575 251.763 244.997 250.676 239.959V69.9861C251.649 64.9482 256.026 61.4273 261.119 61.7422C265.497 61.7422 270.647 65.5779 270.647 70.6158L270.733 236.954C270.733 240.245 270.361 242.764 267.758 245.198L267.786 245.169Z" fill="#263038"/>
<path d="M498.461 246.401C494.998 249.092 490.85 248.576 487.731 246C485.07 243.796 483.84 240.733 483.296 237.155V132.818C483.868 128.983 485.327 125.977 488.189 123.687C491.222 121.254 496.229 121.426 499.147 124.145C501.093 125.948 503.296 128.925 503.296 132.074V237.928C503.296 241.363 500.95 244.483 498.489 246.401H498.461Z" fill="#263038"/>
<path d="M321.492 246.028C317.629 249.348 312.508 248.661 309.246 245.083C307.529 243.194 306.585 241.247 306.013 238.528V131.5C306.957 127.579 308.817 124.23 312.536 122.655C314.425 121.854 317.114 121.682 319.175 122.655C322.951 124.43 325.927 128.638 325.927 133.246L326.042 237.068C325.383 240.675 324.239 243.68 321.492 246.028Z" fill="#263038"/>
<path d="M322.235 105.024C319.946 106.37 317.829 106.57 315.254 106.541C311.362 106.541 308.043 104.623 305.583 101.618C300.719 95.6926 301.892 87.2769 308.043 82.6111C314.195 77.9453 322.836 79.7486 326.956 86.0174C331.22 92.5152 329.16 100.988 322.235 105.024Z" fill="#263038"/>
<path d="M495.628 106.427H491.193C486.873 105.883 483.325 102.763 481.637 99.4708C479.376 95.0626 479.72 90.1964 482.123 86.3607C486.386 79.548 495.314 78.0023 501.494 82.8971C508.046 88.1068 508.332 97.7247 502.266 103.135C500.464 104.738 498.318 106.455 495.628 106.455V106.427Z" fill="#263038"/>
</g>
<defs>
<clipPath id="clip0_11591_422">
<rect width="714" height="292" fill="white"/>
</clipPath>
</defs>
</svg>
